# xmcd
#
# Track frame offsets: 
#        150
#        55633
#        59120
#        82414
#        117227
#        148438
#        178677
#        205022
#
# Disc length: 3238 seconds
#
# Revision: 0
# Processed by: cddbd v1.5.2PL0 Copyright (c) Steve Scherf et al.
# Submitted via: ExactAudioCopy v0.95b4
#
DISCID=7e0ca408
DTITLE=Eric Clapton - 1998-11-20 - Pilgrim Tour - Berlin - CD2
DYEAR=1998
DGENRE=Blues
TTITLE0=Old Love
TTITLE1=Old Love Outro
TTITLE2=Crossroads
TTITLE3=Have You Ever Loved A Woman
TTITLE4=Tearing Us Apart
TTITLE5=Wonderful Tonight
TTITLE6=Cocaine
TTITLE7=Sunshine Of Your Love
EXTD=
EXTT0=
EXTT1=
EXTT2=
EXTT3=
EXTT4=
EXTT5=
EXTT6=
EXTT7=
PLAYORDER=
